<?xml version="1.0" encoding="UTF-8"?>
<svg id="yield-icon" xmlns="http://www.w3.org/2000/svg" version="1.1" viewBox="0 0 540.8 568.2">
  <defs>
    <style>
      .st0 {
        fill: currentColor;
      }

      .st1 {
        fill: currentColor;
      }
    </style>
  </defs>
  <path class="st0" d="M470.9,172.6c22.2,59.1,41.7,120,47.5,183.4,18.2,5.5,17.2,19.1,12,34.7-3.5,10.3-12.1,16.5-9.6,28.3,33.8,6.7,18,42.2,2.5,59.6-2.1,2.4-4.7,3.6-6.4,5.2-1,1-1.1.8-.8,2.5,20.3,3.3,28.2,9.8,23.2,31-5.8,24.8-28.5,42.4-51.1,51.1H37.8c-1.8-.1-4.9-.2-6.2-1.5-3.3-3.3-.5-34-1.8-41.6-1.6-9.8-13-31.6-16.7-43.9-30.5-102.6-3.7-210.6,34.7-306.9.3-2.5-.1-1.5-1.8-1.7-3.6-.6-6.4-.3-10.4-1.6-34.4-11.1-14.8-86.8,16.4-91,9.6-1.3,52.2,1.8,56.3-.7C131.4,38,173.1,12.9,218.8,4.2c74.8-14.1,160.5,6.3,200.6,75.5,17.6,2.7,47.6-4.3,63,3.5,29.6,15,36.2,95.4-11.5,89.3ZM333.1,24C269.8.8,180.2,10.2,134.1,63.2c-1.4,1.6-12.5,15.6-11.3,16.6,72.8,0,145.7.2,218.6,0,17.9,0,44.5,2.2,61.2,0,1.2-.2,2.5.3,1.8-1.8-.9-2.3-11.2-14.7-13.6-17.3-15.5-16.6-36.4-29-57.6-36.8h0ZM39.7,104.8c-7.1,11.5-11.2,28-9.5,41.6.7,5.9,4,11.5,10,13.1,146.3,2.6,293.1.5,439.6,1.1,24.3-8.4,13.6-63.8-7.6-68.3-7.9-1.7-20.1-.4-28.6-.5-99.2-1.2-198.5,1-297.7,0-8.2,4.3-10.1.9-16.5,0-14.5-2-56.1-1.3-71.4,0-9.9.9-13.7,5.5-18.4,13.1h0ZM468.6,299.7c9.7,15.6,13.6,38,8.3,55.8,9.4-2,18.9-3.9,28.5-2.4,2.2-2.1-6.1-44.8-7.5-51.3-9.1-43.6-23.7-85.7-39-127.3l-1.8-1.8H61.2C22.6,271-6.7,378.6,26.6,483.2c2,6.5,15.5,35.9,15.5,38v35h329.1l-10.8-8.8c-1.6-1.7-8.2-11.2-8.9-11.3-.8-.2-9.8,8.4-12.2.4-2.8-9.3,6.8-8.1,6.9-9.3.3-2.7-2.6-7.8-3.3-11-2-10.3-3-18.8,6.8-25.2,4.3-1,9-3.3,13.7-4.7.8-.2,2.7.4,1.7-1.8-.7-1.6-10.3-10.7-12.8-14.5-6.7-9.9-15.1-30.1-8.4-41.2,4.8-7.9,24.4-10.4,24.8-12.1-3.1-5-7.2-8.1-10.5-13.3-4.9-7.8-10.1-21.5-9.9-30.7.6-21.7,42.3-22.9,57.1-17.2-2.9-20.9-.4-44.1,13.1-61.1,4.7-5.9,15.5-15.8,23.3-16,8.9-.2,22.1,14.1,26.6,21.3h0ZM422.2,312.7c-3.5,5.3-4.9,13.9-4.8,20.2-6.1,19.6,11.1,46.1,32.9,37.1,22.5-9.3,19.1-43.4,9.6-61.2-2.6-4.9-11.6-16.7-17.1-17.5-7.3-1-18.9,14.6-20.7,21.4h0ZM413.9,373.3c-5-4-12.6-6.7-19-7.1-5.4-3.5-33.7-.5-34.5,6.5-.3,3.2,2.8,13.8,4.2,17.2,5.1,12.1,17.9,24.3,30,29.4,40,17,54.9-30.7,19.3-46ZM487.6,366.2c-6.4.4-14.1,3.1-19,7.1-18.7,6.5-29,32.8-10.6,45.7,20.2,14.1,51.8-9.7,59.9-29,1.7-4.1,5.8-17.4,2.1-20.2-6.4-5-24.8-6.1-32.4-3.5h0ZM435.3,448.2v-22.6l-13.1,7.1,13.1,15.4ZM447.2,425.6v22.6l7.9-10.6c9.9-5.3-3.5-7.7-7.9-12ZM408,438.7c-5.2-4.6-16.8-8.5-23.8-8.3-6.4-3.4-30.9.3-30.8,8.7.2,25.9,40.2,62.3,64.1,44.2,17.7-13.5,8.5-37.1-9.5-44.6h0ZM497.1,430.4c-7,.1-17.2,3.9-22.6,8.3-17.2,6.9-27.1,30.2-11.1,43.8,20.9,17.7,55.6-9.7,62.8-30.7.9-2.7,3-11.4,2.9-13.7-.4-7-26.5-11.3-32-7.6h0ZM435.3,515.9v-34.5c-5.2,6.5-11.4,11.5-17.8,16.6l9.6,6.5,8.3,11.3h0ZM447.2,481.5v34.5l6-8.9c1.8-3.4,10.7-7.2,10.7-10.7-7-3.3-11.5-9.4-16.6-14.9h0ZM408,506.4c-4.7-4.3-14.7-8-21.4-8.3-7.7-2.8-24.7-1-31.4,3.7-3.4,2.4-.2,13.8,1.1,17.7,6.9,20.6,39.9,46.5,61,31.4,17.8-12.7,8.9-37.8-9.4-44.5h0ZM495.9,498.1c-6.2.3-15.3,3.4-20.2,7.1-19.7,7.1-29.2,35.3-8.7,47.4,19.9,11.7,50.7-12.3,58-30.7,1.5-3.7,4.3-12.5,4.1-16.1-.4-7.7-27.5-11.2-33.2-7.6h0ZM435.3,556.3l-1.2-8.3c-.1,3.6-3,5.5-4.8,8.3h6s0,0,0,0ZM453.1,556.3l-5.9-7.1v7.1s5.9,0,5.9,0h0Z"/>
  <path class="st0" d="M495.9,498.1c15.8-.9,16.2,8.1,6,17.2-5.5,4.8-15.9,9.2-23.2,9-14.2-.5-11.2-12.8-3-19.1,4.9-3.8,14-6.8,20.2-7.1h0Z"/>
  <path class="st0" d="M386.6,498.1c6.7.4,16.6,4,21.4,8.3,15.4,14-.7,21.3-17,15.2-13.7-5.2-28.5-24.8-4.4-23.5h0Z"/>
  <path class="st0" d="M497.1,430.4c9.5-.2,14.8,4.2,8.8,13-5.8,8.6-21.4,15.1-31.5,12.6-9.6-2.4-5.4-12.7,0-17.3s15.6-8.2,22.6-8.3h0Z"/>
  <path class="st0" d="M384.2,430.4c6.9-.2,18.6,3.8,23.8,8.3,7.8,6.9,9.2,17.4-4.1,17.9-9.3.4-22.8-6-27.9-13.7-5.2-7.8.2-12.2,8.3-12.5h0Z"/>
  <path class="st0" d="M394.9,366.2c6.5.4,14,3.1,19,7.1,3.7,3,9,10.4,6,14.9-7.6,11.6-44-6-38.4-18.2,2.2-4.7,9-4.2,13.4-3.9h0Z"/>
  <path class="st0" d="M487.6,366.2c25.6-1.6,10.2,18.7-5.3,23.8-17.1,5.6-29.8-3.7-13.7-16.7,5-4,12.6-6.7,19-7.1h0Z"/>
  <path class="st0" d="M417.5,332.9c-.2-6.3,1.2-14.9,4.8-20.2,1.3-2,4.3-4.4,6.6-4.8,15.3-2.1,12.7,42.6-2.5,41.7-7.4-.4-8.8-10.9-8.9-16.8h0Z"/>
  <path class="st0" d="M349.8,491c-6.8,1.7-16.1,2.8-23.2,3.6-52.6,6-166.2,5.3-212.1-21.9-4-2.4-3.1-5-5.3-6.5-2.4-1.7-6.1-.8-9.5-2.4-2.6-1.3-11.4-9.4-14.2-11.9-35.3-31.9-47.4-75.5-48.8-122-1.4-45.5,3.4-74.6,43.6-100.7,4.8-3.1,27.1-15.9,31.2-15,1.2.3,2.1,5.6,6.8,4.3,6.8-1.8,4-9.3,4.8-10.2,17.6-4.2,35.1-9,53-11.7,73.6-11.1,209.7-9.8,272.8,33.3,29.5,20.1,34.8,43.5,35.3,78.2-5-3-8.9-9-15.4-8.3-4.5-7.2-17.7-21.5-26.6-21.3-7.8.2-18.6,10-23.3,16-13.5,17-16,40.3-13.1,61.1-14.8-5.7-56.5-4.5-57.1,17.2-.3,9.2,5,22.9,9.9,30.7,3.3,5.2,7.4,8.3,10.5,13.3-.4,1.7-20,4.2-24.8,12.1-6.8,11.1,1.6,31.3,8.4,41.2,2.5,3.8,12.1,12.9,12.8,14.5.9,2.2-.9,1.5-1.7,1.8-4.7,1.4-9.4,3.7-13.7,4.7h0ZM117.2,235.3c0-3.4-2.7-6.1-6.1-6.1s-6.1,2.7-6.1,6.1,2.7,6.1,6.1,6.1,6.1-2.7,6.1-6.1ZM112.3,258.4c0-3.4-2.7-6.1-6.1-6.1s-6.1,2.7-6.1,6.1,2.7,6.1,6.1,6.1,6.1-2.7,6.1-6.1ZM107.8,281.9c0-3.4-2.8-6.1-6.1-6.1s-6.1,2.8-6.1,6.1,2.8,6.1,6.1,6.1,6.1-2.8,6.1-6.1ZM105,305.5c0-3.4-2.8-6.1-6.1-6.1s-6.1,2.8-6.1,6.1,2.8,6.1,6.1,6.1,6.1-2.8,6.1-6.1ZM102.6,329.2c0-3.4-2.7-6.1-6.1-6.1s-6.1,2.7-6.1,6.1,2.7,6.1,6.1,6.1,6.1-2.7,6.1-6.1ZM101.4,353c0-3.4-2.8-6.1-6.1-6.1s-6.1,2.8-6.1,6.1,2.8,6.1,6.1,6.1,6.1-2.8,6.1-6.1ZM101,376.9c0-3.4-2.7-6.1-6.1-6.1s-6.1,2.7-6.1,6.1,2.7,6.1,6.1,6.1,6.1-2.7,6.1-6.1ZM101.8,400.5c0-3.4-2.7-6.1-6.1-6.1s-6.1,2.7-6.1,6.1,2.7,6.1,6.1,6.1,6.1-2.7,6.1-6.1ZM103.9,424.1c0-3.4-2.7-6.1-6.1-6.1s-6.1,2.7-6.1,6.1,2.7,6.1,6.1,6.1,6.1-2.7,6.1-6.1ZM107.2,447.3c0-3.3-2.7-6-6-6s-6,2.7-6,6,2.7,6,6,6,6-2.7,6-6Z"/>
  <circle class="st0" cx="130.6" cy="532.5" r="6.1"/>
  <circle class="st0" cx="201.9" cy="534.9" r="6.1"/>
  <circle class="st0" cx="225.7" cy="534.9" r="6.1"/>
  <circle class="st0" cx="154.4" cy="533.7" r="6.1"/>
  <circle class="st0" cx="107.2" cy="531.2" r="6.1"/>
  <circle class="st0" cx="249.4" cy="534.9" r="6.1"/>
  <circle class="st0" cx="273.2" cy="534.9" r="6.1"/>
  <circle class="st0" cx="297" cy="534.9" r="6.1"/>
  <circle class="st0" cx="178.2" cy="533.8" r="6.1"/>
  <circle class="st0" cx="83.4" cy="529.2" r="6.1"/>
  <circle class="st0" cx="59.9" cy="527.2" r="6.1"/>
  <circle class="st0" cx="320.6" cy="534.9" r="6.1"/>
  <path class="st0" d="M124,106c-8,14.2,16.3,14.2,8.3,0h323.2c6.2,12.7,6.6,27.8.4,40.5H30.2c-1.7-13.7,2.4-30.1,9.5-41.6,1.2,2,4.5,1.2,6.5,1.2,25.9.3,51.9,0,77.8,0h0ZM133.5,134.7c0-3.4-2.7-6.1-6.1-6.1s-6.1,2.7-6.1,6.1,2.7,6.1,6.1,6.1,6.1-2.7,6.1-6.1Z"/>
  <path class="st1" d="M333.1,24c2.9,5,7.6,8.6,10.5,13.9,7.8,14.4,3,27.8-2.1,42-72.9.2-145.8-.1-218.6,0-1.2-1.1,9.9-15,11.3-16.6C180.2,10.2,269.8.8,333.1,24Z"/>
</svg>